<svg width="51" height="50" viewBox="0 0 51 50" fill="none" xmlns="http://www.w3.org/2000/svg">
<circle cx="25.7852" cy="25" r="25" fill="#D42978"/>
<g clipPath="url(#clip0_92_29791)">
<path d="M29.5993 23.9811L22.8109 17.1929C22.6539 17.0358 22.4443 16.9492 22.2209 16.9492C21.9974 16.9492 21.7878 17.0358 21.6308 17.1929L21.1309 17.6927C20.8056 18.0184 20.8056 18.5477 21.1309 18.8728L26.8312 24.5732L21.1246 30.2798C20.9675 30.437 20.8809 30.6464 20.8809 30.8698C20.8809 31.0934 20.9675 31.3028 21.1246 31.4601L21.6245 31.9598C21.7816 32.1169 21.9911 32.2035 22.2145 32.2035C22.438 32.2035 22.6476 32.1169 22.8046 31.9598L29.5993 25.1654C29.7566 25.0077 29.8431 24.7973 29.8426 24.5735C29.8431 24.349 29.7566 24.1386 29.5993 23.9811Z" fill="white"/>
</g>
<defs>
<clipPath id="clip0_92_29791">
<rect width="15.2542" height="15.2542" fill="white" transform="translate(17.7344 16.9492)"/>
</clipPath>
</defs>
</svg>
