<svg width="20" height="21" viewBox="0 0 20 21" fill="none" xmlns="http://www.w3.org/2000/svg">
<g clipPath="url(#clip0_92_29755)">
<path d="M19.7564 10.106C20.1564 9.45597 20.056 8.62788 19.5123 8.09226L18.7326 7.32417C18.6452 7.23823 18.5776 7.13435 18.5343 7.01971C18.491 6.90507 18.4732 6.7824 18.4819 6.66018L18.5601 5.56319C18.6146 4.79831 18.1398 4.10952 17.4057 3.88819L16.3732 3.57694C16.2552 3.54147 16.1463 3.48063 16.0542 3.39868C15.9622 3.31673 15.8891 3.21566 15.8402 3.10253L15.4081 2.10558C15.106 1.40854 14.3454 1.0089 13.6002 1.15515L12.5526 1.36073C12.4311 1.38471 12.3059 1.38172 12.1857 1.35196C12.0655 1.3222 11.9533 1.2664 11.857 1.18851L11.0231 0.515225C10.4303 0.0365918 9.56972 0.0365918 8.97691 0.515225L8.143 1.18851C8.04673 1.26638 7.93453 1.32216 7.81433 1.35192C7.69413 1.38168 7.56887 1.38469 7.44738 1.36073L6.39972 1.15511C5.65449 1.00882 4.89406 1.40847 4.59183 2.10538L4.15945 3.10261C4.11053 3.21572 4.03749 3.31678 3.94544 3.39871C3.85338 3.48064 3.74454 3.54147 3.62652 3.57694L2.59425 3.88815C1.86011 4.10948 1.38539 4.79823 1.43988 5.56312L1.518 6.66018C1.52678 6.7824 1.50891 6.90507 1.46564 7.01971C1.42237 7.13435 1.35472 7.23823 1.26738 7.32417L0.487652 8.09226C-0.0560195 8.62788 -0.15641 9.45597 0.24359 10.106L0.820113 11.0429C0.884285 11.1471 0.925117 11.2639 0.939797 11.3854C0.954478 11.5068 0.942658 11.63 0.905152 11.7465L0.567848 12.7955C0.333824 13.5233 0.629488 14.3042 1.28687 14.6945L2.22129 15.2492C2.32697 15.3119 2.41774 15.3968 2.4873 15.498C2.55686 15.5993 2.60354 15.7145 2.6241 15.8356L2.808 16.9144C2.9373 17.6728 3.56429 18.2291 4.33265 18.2673L5.40296 18.3205C5.52639 18.3265 5.647 18.3595 5.7563 18.4171C5.86561 18.4748 5.96095 18.5557 6.03562 18.6541L6.6882 19.5127C7.00281 19.9267 7.49207 20.1541 7.99039 20.1541C8.22653 20.1543 8.45985 20.1027 8.6739 20.003L9.64136 19.5512C9.75361 19.4986 9.87603 19.4714 9.99998 19.4714C10.1239 19.4714 10.2463 19.4986 10.3586 19.5512L11.326 20.003C12.0159 20.3251 12.8511 20.119 13.3118 19.5127L13.9642 18.6543C14.0389 18.5558 14.1342 18.4749 14.2435 18.4172C14.3529 18.3596 14.4735 18.3266 14.5969 18.3206L15.6674 18.2674C16.4358 18.2292 17.0628 17.6729 17.1921 16.9144L17.3759 15.8357C17.3965 15.7146 17.4432 15.5994 17.5127 15.4981C17.5823 15.3969 17.6731 15.312 17.7787 15.2494L18.7132 14.6946C19.3706 14.3043 19.6662 13.5234 19.4322 12.7956L19.0949 11.7466C19.0574 11.6301 19.0455 11.5069 19.0602 11.3854C19.0749 11.264 19.1157 11.1471 19.1799 11.043L19.7564 10.106ZM18.5146 10.6335C18.3913 10.8336 18.3128 11.0582 18.2846 11.2916C18.2564 11.525 18.2792 11.7618 18.3512 11.9855L18.6886 13.0346C18.8103 13.4133 18.6564 13.8197 18.3144 14.0228L17.38 14.5776C17.1769 14.6979 17.0024 14.8611 16.8688 15.0556C16.7351 15.2502 16.6454 15.4715 16.6059 15.7043L16.422 16.783C16.3547 17.1777 16.0285 17.4673 15.6286 17.4871L14.5581 17.5403C14.3209 17.5518 14.0891 17.6152 13.879 17.726C13.669 17.8368 13.4857 17.9923 13.3422 18.1816L12.6899 19.0399C12.4501 19.3554 12.0155 19.4627 11.6564 19.2951L10.689 18.8433C10.4733 18.7423 10.2381 18.6899 9.99992 18.6899C9.76175 18.6899 9.5265 18.7423 9.31082 18.8433L8.34336 19.2951C7.98433 19.4627 7.54972 19.3555 7.30996 19.04L6.65738 18.1814C6.51388 17.9922 6.33066 17.8368 6.12061 17.726C5.91056 17.6152 5.67878 17.5519 5.4416 17.5403L4.37128 17.4871C3.97144 17.4673 3.64519 17.1777 3.57789 16.7831L3.39402 15.7043C3.35452 15.4716 3.26482 15.2502 3.13115 15.0557C2.99747 14.8611 2.82304 14.698 2.61996 14.5776L1.68554 14.0228C1.34343 13.8198 1.18953 13.4133 1.31136 13.0346L1.64867 11.9856C1.72075 11.7618 1.74347 11.525 1.71527 11.2916C1.68706 11.0582 1.60859 10.8337 1.48527 10.6335L0.908746 9.69659C0.700582 9.35831 0.752848 8.92737 1.03578 8.64862L1.8155 7.88054C1.98335 7.7154 2.11334 7.51579 2.19649 7.2955C2.27964 7.07521 2.31397 6.83949 2.29711 6.60464L2.21898 5.50757C2.19062 5.10956 2.43765 4.75112 2.81972 4.63593L3.85199 4.32472C4.07877 4.25656 4.28793 4.13969 4.46482 3.98226C4.64172 3.82483 4.78208 3.63065 4.87609 3.41331L5.30847 2.41612C5.44398 2.10362 5.75648 1.90597 6.08851 1.90597C6.14183 1.90597 6.19562 1.91108 6.24925 1.92163L7.29691 2.12726C7.53036 2.17331 7.77108 2.16754 8.00206 2.11035C8.23304 2.05316 8.44864 1.94595 8.63363 1.79628L9.46746 1.12288C9.77597 0.873779 10.2238 0.873779 10.5323 1.12288L11.3662 1.79612C11.5512 1.94581 11.7668 2.05304 11.9978 2.11023C12.2288 2.16742 12.4695 2.17318 12.703 2.1271L13.7505 1.92151C14.1385 1.8453 14.5341 2.05335 14.6914 2.41608L15.1236 3.41304C15.2176 3.63042 15.3579 3.82463 15.5349 3.98208C15.7118 4.13954 15.921 4.25644 16.1478 4.3246L17.1802 4.63585C17.5623 4.75101 17.8094 5.10948 17.781 5.50753L17.7029 6.60456C17.686 6.83942 17.7203 7.07515 17.8035 7.29545C17.8866 7.51575 18.0166 7.71536 18.1845 7.8805L18.9642 8.64858C19.2471 8.92733 19.2994 9.35823 19.0912 9.69655L18.5146 10.6335Z" fill="#D42978"/>
<path d="M5.31285 4.90308C5.16113 4.7498 4.91386 4.74855 4.76054 4.90031L4.75484 4.90601C4.60156 5.05773 4.60031 5.30504 4.75206 5.45832C4.78835 5.49505 4.83157 5.5242 4.87923 5.54407C4.92688 5.56394 4.97801 5.57414 5.02964 5.57406C5.13256 5.57417 5.23133 5.53356 5.30441 5.46109L5.31011 5.45539C5.46335 5.30367 5.4646 5.05637 5.31285 4.90308ZM17.2953 8.79109C17.0208 7.31551 16.3127 5.97258 15.2475 4.90742C12.8452 2.50508 9.13011 2.03793 6.21308 3.77144C6.02765 3.88164 5.96667 4.12129 6.07687 4.30672C6.1871 4.49215 6.42671 4.55309 6.61214 4.44293C9.22179 2.89199 12.5457 3.31019 14.6952 5.45976C16.6172 7.38176 17.1748 10.2411 16.1159 12.7443C16.0318 12.9429 16.1248 13.1721 16.3234 13.2561C16.3715 13.2765 16.4232 13.287 16.4754 13.287C16.6276 13.287 16.7722 13.1975 16.8353 13.0486C17.4042 11.7038 17.5632 10.2316 17.2953 8.79109ZM15.2489 14.8505C15.0971 14.6973 14.8498 14.696 14.6966 14.8477L14.6909 14.8534C14.5376 15.0052 14.5363 15.2525 14.6881 15.4057C14.7244 15.4425 14.7676 15.4716 14.8152 15.4915C14.8629 15.5114 14.914 15.5216 14.9657 15.5215C15.0686 15.5216 15.1674 15.481 15.2404 15.4085L15.2461 15.4028C15.3994 15.2511 15.4006 15.0038 15.2489 14.8505ZM13.9241 16.0021C13.8139 15.8167 13.5743 15.7558 13.3888 15.8659C12.3353 16.492 11.1658 16.7972 10.0038 16.7971C8.28726 16.7971 6.58753 16.1309 5.30574 14.8491C3.38378 12.9271 2.82613 10.0677 3.88507 7.56461C3.96913 7.36598 3.87621 7.1368 3.67757 7.05277C3.47898 6.96879 3.24976 7.06164 3.16574 7.26031C2.59683 8.60504 2.43781 10.0773 2.70574 11.5178C2.98023 12.9934 3.68831 14.3363 4.75347 15.4015C6.18605 16.834 8.08535 17.5784 10.0039 17.5784C11.3027 17.5784 12.6104 17.2373 13.7879 16.5375C13.9733 16.4272 14.0343 16.1876 13.9241 16.0021Z" fill="#D42978"/>
<path d="M11.6141 6.95832C11.4262 6.85227 11.188 6.91855 11.082 7.10641L7.46133 13.52C7.35531 13.7078 7.42156 13.946 7.60941 14.052C7.65407 14.0773 7.70326 14.0935 7.75417 14.0997C7.80509 14.1059 7.85672 14.102 7.90614 14.0883C7.95555 14.0745 8.00177 14.0511 8.04215 14.0195C8.08254 13.9879 8.11629 13.9486 8.14148 13.9039L11.7621 7.49039C11.8682 7.30254 11.8019 7.06434 11.6141 6.95832ZM12.3529 11.1099C11.4484 11.1099 10.7126 11.8457 10.7126 12.7502C10.7126 13.6547 11.4484 14.3905 12.3529 14.3905C13.2573 14.3905 13.9932 13.6547 13.9932 12.7502C13.9932 11.8457 13.2574 11.1099 12.3529 11.1099ZM12.3529 13.6094C11.8791 13.6094 11.4937 13.224 11.4937 12.7502C11.4937 12.2764 11.8791 11.891 12.3529 11.891C12.8267 11.891 13.2121 12.2764 13.2121 12.7502C13.2121 13.224 12.8267 13.6094 12.3529 13.6094ZM7.64715 5.91992C6.7427 5.91992 6.00684 6.65574 6.00684 7.56023C6.00684 8.46473 6.74266 9.20055 7.64715 9.20055C8.5516 9.20055 9.28746 8.46473 9.28746 7.56023C9.28746 6.65574 8.55164 5.91992 7.64715 5.91992ZM7.64715 8.41941C7.17336 8.41941 6.78793 8.03398 6.78793 7.5602C6.78793 7.08641 7.17336 6.70098 7.64715 6.70098C8.12094 6.70098 8.50637 7.08641 8.50637 7.5602C8.50637 8.03398 8.12094 8.41941 7.64715 8.41941Z" fill="#D42978"/>
</g>
<defs>
<clipPath id="clip0_92_29755">
<rect width="20" height="20" fill="white" transform="translate(0 0.155273)"/>
</clipPath>
</defs>
</svg>
