<svg width="36" height="36" viewBox="0 0 36 36" fill="none" xmlns="http://www.w3.org/2000/svg">
<circle cx="18" cy="18" r="18" fill="#D42978"/>
<g clipPath="url(#clip0_92_33204)">
<path d="M20.5804 19.0798C20.5804 20.5027 19.4229 21.6603 18 21.6603C16.5771 21.6603 15.42 20.5027 15.42 19.0798C15.42 17.6569 16.5771 16.4994 18 16.4994C19.4229 16.4994 20.5804 17.6574 20.5804 19.0798ZM26 15.4158V22.7448C26 23.214 25.8136 23.664 25.4818 23.9958C25.15 24.3276 24.7 24.514 24.2308 24.514H11.7692C11.3 24.514 10.85 24.3276 10.5182 23.9958C10.1864 23.664 10 23.214 10 22.7448V15.4158C10 14.9466 10.1864 14.4965 10.5182 14.1647C10.85 13.833 11.3 13.6466 11.7692 13.6466H13.9454V13.0344C13.9454 12.6238 14.1085 12.2301 14.3988 11.9397C14.6891 11.6494 15.0829 11.4863 15.4934 11.4863H20.5066C20.9171 11.4863 21.3109 11.6494 21.6012 11.9397C21.8915 12.2301 22.0546 12.6238 22.0546 13.0344V13.6461H24.2308C25.2078 13.6466 26 14.4387 26 15.4158ZM21.9073 19.0798C21.9073 16.9254 20.1545 15.1725 18 15.1725C15.846 15.1725 14.0931 16.9254 14.0931 19.0798C14.0931 21.2343 15.846 22.9872 18 22.9872C20.1545 22.9872 21.9073 21.2343 21.9073 19.0798Z" fill="white"/>
</g>
<defs>
<clipPath id="clip0_92_33204">
<rect width="16" height="16" fill="white" transform="translate(10 10)"/>
</clipPath>
</defs>
</svg>
