<svg width="40" height="40" viewBox="0 0 40 40" fill="none" xmlns="http://www.w3.org/2000/svg">
<rect x="1.21484" y="0.5" width="38.2857" height="38.2857" rx="9.5" stroke="#D42978"/>
<g clipPath="url(#clip0_92_32390)">
<path d="M25.8594 22.9688C24.7015 22.9688 23.6812 23.5383 23.0404 24.4045L17.4996 21.5673C17.5916 21.2538 17.6562 20.9288 17.6562 20.5859C17.6562 20.1209 17.5609 19.6787 17.3962 19.272L23.1948 15.7827C23.8401 16.54 24.7886 17.0312 25.8594 17.0312C27.798 17.0312 29.375 15.4543 29.375 13.5156C29.375 11.577 27.798 10 25.8594 10C23.9207 10 22.3438 11.577 22.3438 13.5156C22.3438 13.9624 22.4357 14.3862 22.5884 14.7796L16.7725 18.2792C16.1277 17.5444 15.1929 17.0703 14.1406 17.0703C12.202 17.0703 10.625 18.6473 10.625 20.5859C10.625 22.5246 12.202 24.1016 14.1406 24.1016C15.3176 24.1016 16.3551 23.5153 16.9936 22.6248L22.5161 25.4527C22.4143 25.7811 22.3438 26.123 22.3438 26.4844C22.3438 28.423 23.9207 30 25.8594 30C27.798 30 29.375 28.423 29.375 26.4844C29.375 24.5457 27.798 22.9688 25.8594 22.9688Z" fill="#D42978"/>
</g>
<defs>
<clipPath id="clip0_92_32390">
<rect width="20" height="20" fill="white" transform="translate(10 10)"/>
</clipPath>
</defs>
</svg>
