<svg width="40" height="40" viewBox="0 0 40 40" fill="none" xmlns="http://www.w3.org/2000/svg">
<rect x="0.642578" y="0.5" width="38.2857" height="38.2857" rx="9.5" stroke="#D42978"/>
<g clipPath="url(#clip0_92_32380)">
<path d="M29.1312 15.4917C28.9152 14.6884 28.2818 14.0553 27.4787 13.839C26.0114 13.4375 20.1423 13.4375 20.1423 13.4375C20.1423 13.4375 14.2735 13.4375 12.8062 13.8237C12.0185 14.0398 11.3698 14.6886 11.1537 15.4917C10.7676 16.9588 10.7676 20.0015 10.7676 20.0015C10.7676 20.0015 10.7676 23.0595 11.1537 24.5113C11.37 25.3144 12.0031 25.9476 12.8063 26.1639C14.2889 26.5655 20.1426 26.5655 20.1426 26.5655C20.1426 26.5655 26.0114 26.5655 27.4787 26.1792C28.2819 25.9631 28.9152 25.3299 29.1314 24.5267C29.5175 23.0595 29.5175 20.0169 29.5175 20.0169C29.5175 20.0169 29.5329 16.9588 29.1312 15.4917ZM18.2737 22.8124V17.1905L23.1542 20.0015L18.2737 22.8124Z" fill="#D42978"/>
</g>
<defs>
<clipPath id="clip0_92_32380">
<rect width="20" height="20" fill="white" transform="translate(10.1426 10)"/>
</clipPath>
</defs>
</svg>
