<svg width="21" height="20" viewBox="0 0 21 20" fill="none" xmlns="http://www.w3.org/2000/svg">
<g clipPath="url(#clip0_92_31874)">
<path d="M16.3853 3.70117C16.1176 3.70117 15.8998 3.91902 15.8998 4.18672C15.8998 4.45441 16.1176 4.67227 16.3853 4.67227C16.6531 4.67227 16.8709 4.45445 16.8709 4.18672C16.8709 3.91898 16.6531 3.70117 16.3853 3.70117ZM10.5716 5.6959C8.19811 5.6959 6.26709 7.62691 6.26709 10.0004C6.26709 12.3739 8.19811 14.305 10.5716 14.305C12.9452 14.305 14.8762 12.374 14.8762 10.0005C14.8762 7.62695 12.9452 5.6959 10.5716 5.6959Z" fill="white"/>
<path d="M15.0888 0H6.05423C3.03106 0 0.571533 2.45953 0.571533 5.48273V14.5173C0.571533 17.5405 3.03106 20 6.05423 20H15.0888C18.112 20 20.5715 17.5405 20.5715 14.5173V5.48273C20.5715 2.45953 18.112 0 15.0888 0ZM10.5715 15.4856C7.54673 15.4856 5.08595 13.0248 5.08595 10C5.08595 6.9752 7.54677 4.51445 10.5715 4.51445C13.5963 4.51445 16.0572 6.97523 16.0572 10C16.0572 13.0248 13.5963 15.4856 10.5715 15.4856ZM16.3852 5.85297C15.4663 5.85297 14.7186 5.10531 14.7186 4.18633C14.7186 3.26734 15.4663 2.51965 16.3852 2.51965C17.3042 2.51965 18.0519 3.2673 18.0519 4.18629C18.0519 5.10527 17.3042 5.85297 16.3852 5.85297Z" fill="white"/>
</g>
<defs>
<clipPath id="clip0_92_31874">
<rect width="20" height="20" fill="white" transform="translate(0.571533)"/>
</clipPath>
</defs>
</svg>
