<svg width="21" height="20" viewBox="0 0 21 20" fill="none" xmlns="http://www.w3.org/2000/svg">
<g clipPath="url(#clip0_92_31880)">
<path d="M19.1312 5.49171C18.9152 4.68845 18.2818 4.05525 17.4787 3.83895C16.0114 3.4375 10.1423 3.4375 10.1423 3.4375C10.1423 3.4375 4.27348 3.4375 2.80623 3.82375C2.01853 4.03981 1.36978 4.68859 1.15371 5.49171C0.767578 6.95884 0.767578 10.0015 0.767578 10.0015C0.767578 10.0015 0.767578 13.0595 1.15371 14.5113C1.36998 15.3144 2.00309 15.9476 2.80635 16.1639C4.28891 16.5655 10.1426 16.5655 10.1426 16.5655C10.1426 16.5655 16.0114 16.5655 17.4787 16.1792C18.2819 15.9631 18.9152 15.3299 19.1314 14.5267C19.5175 13.0595 19.5175 10.0169 19.5175 10.0169C19.5175 10.0169 19.5329 6.95881 19.1312 5.49171ZM8.27373 12.8124V7.19055L13.1542 10.0015L8.27373 12.8124Z" fill="white"/>
</g>
<defs>
<clipPath id="clip0_92_31880">
<rect width="20" height="20" fill="white" transform="translate(0.142578)"/>
</clipPath>
</defs>
</svg>
