<svg width="21" height="20" viewBox="0 0 21 20" fill="none" xmlns="http://www.w3.org/2000/svg">
<g clipPath="url(#clip0_92_31885)">
<path d="M20.7139 3.79875C19.9701 4.125 19.1776 4.34125 18.3514 4.44625C19.2014 3.93875 19.8501 3.14125 20.1551 2.18C19.3626 2.6525 18.4876 2.98625 17.5551 3.1725C16.8026 2.37125 15.7301 1.875 14.5601 1.875C12.2901 1.875 10.4626 3.7175 10.4626 5.97625C10.4626 6.30125 10.4901 6.61375 10.5576 6.91125C7.14887 6.745 4.13262 5.11125 2.10637 2.6225C1.75262 3.23625 1.54512 3.93875 1.54512 4.695C1.54512 6.115 2.27637 7.37375 3.36637 8.1025C2.70762 8.09 2.06137 7.89875 1.51387 7.5975V7.6425C1.51387 9.635 2.93512 11.29 4.79887 11.6712C4.46512 11.7625 4.10137 11.8062 3.72387 11.8062C3.46137 11.8062 3.19637 11.7913 2.94762 11.7362C3.47887 13.36 4.98637 14.5538 6.77887 14.5925C5.38387 15.6838 3.61262 16.3412 1.69512 16.3412C1.35887 16.3412 1.03637 16.3263 0.713867 16.285C2.53012 17.4563 4.68262 18.125 7.00387 18.125C14.5489 18.125 18.6739 11.875 18.6739 6.4575C18.6739 6.27625 18.6676 6.10125 18.6589 5.9275C19.4726 5.35 20.1564 4.62875 20.7139 3.79875Z" fill="white"/>
</g>
<defs>
<clipPath id="clip0_92_31885">
<rect width="20" height="20" fill="white" transform="translate(0.713867)"/>
</clipPath>
</defs>
</svg>
