<svg width="38" height="38" viewBox="0 0 38 38" fill="none" xmlns="http://www.w3.org/2000/svg">
<g clipPath="url(#clip0_92_30885)">
<path d="M19.0595 7.70779e-05C8.52039 -0.0296104 -0.0296104 8.52039 7.70779e-05 19.0595C0.0297646 29.4798 8.72078 38.0001 19.1411 38.0001H38.0001V19.1411C38.0001 8.72078 29.4798 0.0297646 19.0595 7.70779e-05ZM20.6923 28.6782C20.195 29.1161 19.579 29.3387 18.8368 29.3387C18.0946 29.3387 17.4786 29.1161 16.9813 28.6782C16.4841 28.2403 16.2391 27.6763 16.2391 26.9934C16.2391 26.3106 16.4841 25.7466 16.9813 25.3087C17.4786 24.8708 18.0946 24.6481 18.8368 24.6481C19.579 24.6481 20.195 24.8708 20.6923 25.3087C21.1895 25.7466 21.4345 26.3106 21.4345 26.9934C21.4345 27.6763 21.1821 28.2329 20.6923 28.6782ZM25.086 16.2614C24.7817 16.8923 24.2919 17.538 23.6165 18.1911L22.0208 19.6755C21.568 20.1134 21.2489 20.5587 21.0782 21.0188C20.9001 21.479 20.8036 22.0579 20.7887 22.763H16.8106C16.8106 21.4122 16.9665 20.3434 17.2708 19.5641C17.5825 18.77 18.0946 18.0723 18.7552 17.5305C19.438 16.9591 19.9649 16.4321 20.3212 15.9571C20.67 15.5044 20.8555 14.9477 20.8555 14.3837C20.8555 12.9884 20.2544 12.2833 19.052 12.2833C18.5325 12.2684 18.0352 12.4911 17.7087 12.8919C17.3673 13.3001 17.1817 13.8493 17.1669 14.547H12.4762C12.4985 12.6915 13.0774 11.2516 14.2278 10.22C15.3782 9.18836 16.9887 8.66883 19.0595 8.66883C21.1227 8.66883 22.7259 9.14383 23.8614 10.1012C24.997 11.0587 25.561 12.4095 25.561 14.1684C25.5536 14.8884 25.3977 15.6083 25.086 16.2614Z" fill="white"/>
</g>
<defs>
<clipPath id="clip0_92_30885">
<rect width="38" height="38" fill="white"/>
</clipPath>
</defs>
</svg>
