<svg width="40" height="40" viewBox="0 0 40 40" fill="none" xmlns="http://www.w3.org/2000/svg">
<rect x="1.07227" y="0.5" width="38.2857" height="38.2857" rx="9.5" stroke="white"/>
<g clipPath="url(#clip0_92_32342)">
<path d="M26.3858 13.7012C26.1181 13.7012 25.9003 13.919 25.9003 14.1867C25.9003 14.4544 26.1181 14.6723 26.3858 14.6723C26.6536 14.6723 26.8714 14.4545 26.8714 14.1867C26.8714 13.919 26.6536 13.7012 26.3858 13.7012ZM20.5721 15.6959C18.1986 15.6959 16.2676 17.6269 16.2676 20.0004C16.2676 22.3739 18.1986 24.305 20.5721 24.305C22.9457 24.305 24.8767 22.374 24.8767 20.0005C24.8767 17.627 22.9457 15.6959 20.5721 15.6959Z" fill="white"/>
<path d="M25.0896 10H16.055C13.0318 10 10.5723 12.4595 10.5723 15.4827V24.5173C10.5723 27.5405 13.0318 30 16.055 30H25.0896C28.1128 30 30.5723 27.5405 30.5723 24.5173V15.4827C30.5723 12.4595 28.1128 10 25.0896 10ZM20.5723 25.4856C17.5475 25.4856 15.0867 23.0248 15.0867 20C15.0867 16.9752 17.5475 14.5145 20.5723 14.5145C23.597 14.5145 26.0579 16.9752 26.0579 20C26.0579 23.0248 23.597 25.4856 20.5723 25.4856ZM26.386 15.853C25.467 15.853 24.7193 15.1053 24.7193 14.1863C24.7193 13.2673 25.467 12.5196 26.386 12.5196C27.305 12.5196 28.0526 13.2673 28.0526 14.1863C28.0526 15.1053 27.305 15.853 26.386 15.853Z" fill="white"/>
</g>
<defs>
<clipPath id="clip0_92_32342">
<rect width="20" height="20" fill="white" transform="translate(10.5723 10)"/>
</clipPath>
</defs>
</svg>
