<svg width="42" height="42" viewBox="0 0 42 42" fill="none" xmlns="http://www.w3.org/2000/svg">
<g clipPath="url(#clip0_92_30876)">
<path d="M41.6397 32.4444L37.1307 27.935C36.6658 28.9135 35.7765 29.6654 34.6481 29.9335L34.0339 30.0793L33.888 30.6941C33.6387 31.744 32.4661 33.7211 29.998 33.5205L29.3679 33.4693L29.0393 34.0086C28.4861 34.9165 27.5575 35.5369 26.5252 35.7209L32.4445 41.6396C32.5927 41.7879 32.7765 41.8959 32.9783 41.9533C33.18 42.0106 33.3931 42.0154 33.5973 41.9672C33.8014 41.919 33.9898 41.8194 34.1447 41.6779C34.2995 41.5364 34.4156 41.3576 34.4819 41.1586L36.151 36.1508L41.1588 34.4817C41.3578 34.4154 41.5365 34.2993 41.678 34.1445C41.8195 33.9897 41.9191 33.8012 41.9673 33.5971C42.0154 33.393 42.0106 33.1799 41.9533 32.9782C41.896 32.7764 41.788 32.5927 41.6397 32.4444ZM12.9609 34.0087L12.6323 33.4694L12.0022 33.5205C9.53411 33.7212 8.36155 31.7441 8.11226 30.6942L7.96632 30.0794L7.35207 29.9336C6.22373 29.6655 5.33443 28.9136 4.86948 27.935L0.360549 32.4444C0.212192 32.5927 0.104212 32.7764 0.0468676 32.9782C-0.0104768 33.18 -0.0152817 33.393 0.0329095 33.5972C0.0811008 33.8013 0.180688 33.9898 0.322209 34.1446C0.463731 34.2994 0.642488 34.4155 0.841498 34.4818L5.84934 36.1509L7.51843 41.1587C7.58472 41.3577 7.70079 41.5365 7.85562 41.678C8.01044 41.8195 8.19888 41.9191 8.40303 41.9673C8.60718 42.0155 8.82026 42.0107 9.02203 41.9533C9.2238 41.896 9.40755 41.788 9.55584 41.6397L15.4751 35.721C14.4427 35.537 13.5141 34.9165 12.9609 34.0087ZM26.9379 32.728L28.0557 30.8938L30.1968 31.0677C30.8011 31.1167 31.3532 30.7168 31.4935 30.1256L31.9898 28.0355L34.0793 27.5393C34.3653 27.4713 34.6176 27.3032 34.7904 27.0653C34.9632 26.8274 35.0451 26.5355 35.0213 26.2425L34.8474 24.102L36.6815 22.9842C36.9326 22.8312 37.1206 22.5934 37.2114 22.3138C37.3023 22.0342 37.2901 21.7313 37.1769 21.4599L36.3504 19.4775L37.7492 17.8477C37.9406 17.6247 38.0459 17.3404 38.0459 17.0464C38.046 16.7524 37.9408 16.4681 37.7493 16.245L36.3504 14.6146L37.1769 12.6321C37.2901 12.3607 37.3023 12.0578 37.2114 11.7782C37.1206 11.4986 36.9326 11.2608 36.6815 11.1078L34.8474 9.99004L35.0213 7.84952C35.0451 7.55647 34.9632 7.26458 34.7904 7.0267C34.6176 6.78882 34.3653 6.62067 34.0793 6.55269L31.9898 6.05648L31.4935 3.96641C31.3531 3.37521 30.8011 2.9753 30.1968 3.02428L28.0557 3.19818L26.9379 1.36396C26.6217 0.845035 25.9739 0.634953 25.4134 0.86866L23.4312 1.6957L21.8015 0.296738C21.5784 0.105265 21.2941 0 21.0001 0C20.7061 0 20.4218 0.105265 20.1987 0.296738L18.569 1.69553L16.5868 0.868496C16.3155 0.755292 16.0125 0.743007 15.7329 0.833865C15.4532 0.924722 15.2154 1.11272 15.0624 1.3638L13.9445 3.19802L11.8034 3.02411C11.1979 2.97563 10.6471 3.37504 10.5067 3.96624L10.0104 6.05632L7.92096 6.55269C7.6349 6.62066 7.38263 6.7888 7.20983 7.02669C7.03703 7.26457 6.95511 7.55646 6.97891 7.84952L7.15282 9.99004L5.31868 11.1078C5.06762 11.2608 4.87964 11.4986 4.78877 11.7782C4.6979 12.0578 4.71014 12.3607 4.8233 12.6321L5.64984 14.6146L4.25088 16.245C4.05945 16.4681 3.95423 16.7524 3.95426 17.0464C3.95429 17.3404 4.05957 17.6247 4.25104 17.8477L5.64984 19.4775L4.82346 21.4599C4.71031 21.7313 4.69806 22.0342 4.78893 22.3138C4.8798 22.5934 5.06778 22.8312 5.31885 22.9842L7.15298 24.102L6.97908 26.2425C6.95529 26.5355 7.03722 26.8274 7.21002 27.0653C7.38282 27.3032 7.63507 27.4713 7.92112 27.5393L10.0105 28.0355L10.5069 30.1256C10.6474 30.7168 11.1981 31.1162 11.8036 31.0677L13.9447 30.8938L15.0625 32.728C15.2155 32.9791 15.4534 33.1671 15.733 33.258C16.0127 33.3488 16.3156 33.3365 16.587 33.2233L18.5692 32.3963L20.1988 33.795C20.4219 33.9865 20.7062 34.0918 21.0002 34.0918C21.2942 34.0918 21.5785 33.9865 21.8016 33.795L23.4313 32.3963L25.4135 33.2233C25.9739 33.4571 26.6217 33.2469 26.9379 32.728ZM20.5522 25.824C20.0718 26.3045 19.2926 26.3047 18.8121 25.824L11.5632 18.5752C11.0827 18.0947 11.0827 17.3156 11.5632 16.8351L15.2911 13.1071C15.7715 12.6266 16.5506 12.6266 17.0312 13.1071L19.6821 15.758L25.6279 9.8122C26.1084 9.33166 26.8875 9.33166 27.368 9.8122L31.0959 13.54C31.5764 14.0206 31.5764 14.7996 31.0959 15.2802L20.5522 25.824Z" fill="white"/>
<path d="M20.5526 18.3686C20.0721 18.8492 19.293 18.8492 18.8124 18.3686L16.1615 15.7178L14.1738 17.7055L19.6826 23.2141L28.4861 14.4106L26.4985 12.4229L20.5526 18.3686Z" fill="white"/>
</g>
<defs>
<clipPath id="clip0_92_30876">
<rect width="42" height="42" fill="white"/>
</clipPath>
</defs>
</svg>
