<svg width="51" height="50" viewBox="0 0 51 50" fill="none" xmlns="http://www.w3.org/2000/svg">
<circle cx="25" cy="25" r="24" transform="matrix(-1 0 0 1 50.7852 0)" stroke="#D42978" stroke-width="2"/>
<g clipPath="url(#clip0_92_29796)">
<path d="M21.971 23.9811L28.7594 17.1929C28.9164 17.0358 29.126 16.9492 29.3494 16.9492C29.5729 16.9492 29.7825 17.0358 29.9395 17.1929L30.4394 17.6927C30.7647 18.0184 30.7647 18.5477 30.4394 18.8728L24.7391 24.5732L30.4458 30.2798C30.6028 30.437 30.6895 30.6464 30.6895 30.8698C30.6895 31.0934 30.6028 31.3028 30.4458 31.4601L29.9458 31.9598C29.7887 32.1169 29.5793 32.2035 29.3558 32.2035C29.1323 32.2035 28.9227 32.1169 28.7657 31.9598L21.971 25.1654C21.8137 25.0077 21.7272 24.7973 21.7277 24.5735C21.7272 24.349 21.8137 24.1386 21.971 23.9811Z" fill="#D42978"/>
</g>
<defs>
<clipPath id="clip0_92_29796">
<rect width="15.2542" height="15.2542" fill="white" transform="matrix(-1 0 0 1 33.8359 16.9492)"/>
</clipPath>
</defs>
</svg>
