<svg width="20" height="20" viewBox="0 0 20 20" fill="none" xmlns="http://www.w3.org/2000/svg">
<g clipPath="url(#clip0_92_30761)">
<path d="M19.7564 9.95077C20.1564 9.30069 20.056 8.47261 19.5123 7.93698L18.7326 7.1689C18.6452 7.08296 18.5776 6.97908 18.5343 6.86444C18.491 6.7498 18.4732 6.62713 18.4819 6.50491L18.5601 5.40792C18.6146 4.64304 18.1398 3.95425 17.4057 3.73292L16.3732 3.42167C16.2552 3.38619 16.1463 3.32536 16.0542 3.24341C15.9622 3.16146 15.8891 3.06039 15.8402 2.94726L15.4081 1.9503C15.106 1.25327 14.3454 0.853623 13.6002 0.999873L12.5526 1.20546C12.4311 1.22944 12.3059 1.22645 12.1857 1.19668C12.0655 1.16692 11.9533 1.11113 11.857 1.03323L11.0231 0.359951C10.4303 -0.118682 9.56972 -0.118682 8.97691 0.359951L8.143 1.03323C8.04673 1.1111 7.93453 1.16689 7.81433 1.19665C7.69413 1.22641 7.56887 1.22942 7.44738 1.20546L6.39972 0.999834C5.65449 0.853545 4.89406 1.25319 4.59183 1.95011L4.15945 2.94733C4.11053 3.06045 4.03749 3.1615 3.94544 3.24344C3.85338 3.32537 3.74454 3.3862 3.62652 3.42167L2.59425 3.73288C1.86011 3.95421 1.38539 4.64296 1.43988 5.40784L1.518 6.50491C1.52678 6.62713 1.50891 6.7498 1.46564 6.86444C1.42237 6.97908 1.35472 7.08296 1.26738 7.1689L0.487652 7.93698C-0.0560195 8.47261 -0.15641 9.30069 0.24359 9.95073L0.820113 10.8876C0.884285 10.9918 0.925117 11.1086 0.939797 11.2301C0.954478 11.3516 0.942658 11.4748 0.905152 11.5912L0.567848 12.6402C0.333824 13.368 0.629488 14.1489 1.28687 14.5392L2.22129 15.094C2.32697 15.1566 2.41774 15.2415 2.4873 15.3428C2.55686 15.444 2.60354 15.5592 2.6241 15.6803L2.808 16.7591C2.9373 17.5175 3.56429 18.0739 4.33265 18.1121L5.40296 18.1653C5.52639 18.1713 5.647 18.2042 5.7563 18.2619C5.86561 18.3195 5.96095 18.4004 6.03562 18.4989L6.6882 19.3575C7.00281 19.7714 7.49207 19.9988 7.99039 19.9988C8.22653 19.999 8.45985 19.9474 8.6739 19.8477L9.64136 19.3959C9.75361 19.3434 9.87603 19.3161 9.99998 19.3161C10.1239 19.3161 10.2463 19.3434 10.3586 19.3959L11.326 19.8477C12.0159 20.1698 12.8511 19.9637 13.3118 19.3574L13.9642 18.499C14.0389 18.4005 14.1342 18.3196 14.2435 18.262C14.3529 18.2043 14.4735 18.1713 14.5969 18.1653L15.6674 18.1121C16.4358 18.0739 17.0628 17.5176 17.1921 16.7592L17.3759 15.6804C17.3965 15.5593 17.4432 15.4441 17.5127 15.3429C17.5823 15.2416 17.6731 15.1567 17.7787 15.0941L18.7132 14.5393C19.3706 14.149 19.6662 13.3681 19.4322 12.6403L19.0949 11.5913C19.0574 11.4749 19.0455 11.3516 19.0602 11.2302C19.0749 11.1087 19.1157 10.9919 19.1799 10.8877L19.7564 9.95077ZM18.5146 10.4782C18.3913 10.6784 18.3128 10.9029 18.2846 11.1363C18.2564 11.3697 18.2792 11.6065 18.3512 11.8303L18.6886 12.8793C18.8103 13.258 18.6564 13.6644 18.3144 13.8675L17.38 14.4223C17.1769 14.5427 17.0024 14.7058 16.8688 14.9004C16.7351 15.0949 16.6454 15.3163 16.6059 15.549L16.422 16.6278C16.3547 17.0224 16.0285 17.312 15.6286 17.3318L14.5581 17.385C14.3209 17.3966 14.0891 17.46 13.879 17.5708C13.669 17.6815 13.4857 17.837 13.3422 18.0263L12.6899 18.8847C12.4501 19.2001 12.0155 19.3074 11.6564 19.1398L10.689 18.688C10.4733 18.587 10.2381 18.5347 9.99992 18.5347C9.76175 18.5347 9.5265 18.587 9.31082 18.688L8.34336 19.1398C7.98433 19.3074 7.54972 19.2002 7.30996 18.8848L6.65738 18.0262C6.51388 17.837 6.33066 17.6815 6.12061 17.5707C5.91056 17.46 5.67878 17.3966 5.4416 17.385L4.37128 17.3318C3.97144 17.312 3.64519 17.0224 3.57789 16.6278L3.39402 15.5491C3.35452 15.3163 3.26482 15.095 3.13115 14.9004C2.99747 14.7058 2.82304 14.5427 2.61996 14.4223L1.68554 13.8676C1.34343 13.6645 1.18953 13.2581 1.31136 12.8793L1.64867 11.8303C1.72075 11.6065 1.74347 11.3698 1.71527 11.1363C1.68706 10.9029 1.60859 10.6784 1.48527 10.4782L0.908746 9.54132C0.700582 9.20304 0.752848 8.7721 1.03578 8.49335L1.8155 7.72526C1.98335 7.56013 2.11334 7.36052 2.19649 7.14023C2.27964 6.91994 2.31397 6.68422 2.29711 6.44936L2.21898 5.35229C2.19062 4.95429 2.43765 4.59585 2.81972 4.48065L3.85199 4.16944C4.07877 4.10129 4.28793 3.98441 4.46482 3.82698C4.64172 3.66956 4.78208 3.47538 4.87609 3.25804L5.30847 2.26085C5.44398 1.94835 5.75648 1.75069 6.08851 1.75069C6.14183 1.75069 6.19562 1.75581 6.24925 1.76636L7.29691 1.97198C7.53036 2.01804 7.77108 2.01227 8.00206 1.95508C8.23304 1.89789 8.44864 1.79067 8.63363 1.64101L9.46746 0.967607C9.77597 0.718506 10.2238 0.718506 10.5323 0.967607L11.3662 1.64085C11.5512 1.79054 11.7668 1.89776 11.9978 1.95496C12.2288 2.01215 12.4695 2.01791 12.703 1.97183L13.7505 1.76624C14.1385 1.69003 14.5341 1.89808 14.6914 2.26081L15.1236 3.25776C15.2176 3.47514 15.3579 3.66935 15.5349 3.82681C15.7118 3.98427 15.921 4.10116 16.1478 4.16933L17.1802 4.48058C17.5623 4.59573 17.8094 4.95421 17.781 5.35226L17.7029 6.44929C17.686 6.68415 17.7203 6.91988 17.8035 7.14018C17.8866 7.36048 18.0166 7.56009 18.1845 7.72522L18.9642 8.49331C19.2471 8.77206 19.2994 9.20296 19.0912 9.54128L18.5146 10.4782Z" fill="#008115"/>
<path d="M5.31285 4.74781C5.16113 4.59453 4.91386 4.59328 4.76054 4.74504L4.75484 4.75074C4.60156 4.90246 4.60031 5.14976 4.75206 5.30305C4.78835 5.33978 4.83157 5.36893 4.87923 5.3888C4.92688 5.40867 4.97801 5.41886 5.02964 5.41879C5.13256 5.4189 5.23133 5.37829 5.30441 5.30582L5.31011 5.30012C5.46335 5.1484 5.4646 4.90109 5.31285 4.74781ZM17.2953 8.63582C17.0208 7.16023 16.3127 5.8173 15.2475 4.75215C12.8452 2.3498 9.13011 1.88266 6.21308 3.61617C6.02765 3.72637 5.96667 3.96601 6.07687 4.15144C6.1871 4.33687 6.42671 4.39781 6.61214 4.28766C9.22179 2.73672 12.5457 3.15492 14.6952 5.30449C16.6172 7.22648 17.1748 10.0859 16.1159 12.589C16.0318 12.7876 16.1248 13.0168 16.3234 13.1008C16.3715 13.1212 16.4232 13.1317 16.4754 13.1318C16.6276 13.1318 16.7722 13.0422 16.8353 12.8933C17.4042 11.5486 17.5632 10.0763 17.2953 8.63582ZM15.2489 14.6952C15.0971 14.542 14.8498 14.5407 14.6966 14.6925L14.6909 14.6982C14.5376 14.8499 14.5363 15.0972 14.6881 15.2505C14.7244 15.2872 14.7676 15.3163 14.8152 15.3362C14.8629 15.3561 14.914 15.3663 14.9657 15.3662C15.0686 15.3663 15.1674 15.3257 15.2404 15.2532L15.2461 15.2475C15.3994 15.0958 15.4006 14.8485 15.2489 14.6952ZM13.9241 15.8469C13.8139 15.6614 13.5743 15.6005 13.3888 15.7107C12.3353 16.3368 11.1658 16.6419 10.0038 16.6419C8.28726 16.6418 6.58753 15.9756 5.30574 14.6938C3.38378 12.7718 2.82613 9.91246 3.88507 7.40934C3.96913 7.2107 3.87621 6.98152 3.67757 6.8975C3.47898 6.81351 3.24976 6.90637 3.16574 7.10504C2.59683 8.44976 2.43781 9.92199 2.70574 11.3625C2.98023 12.8381 3.68831 14.1811 4.75347 15.2462C6.18605 16.6788 8.08535 17.4232 10.0039 17.4232C11.3027 17.4232 12.6104 17.082 13.7879 16.3822C13.9733 16.272 14.0343 16.0323 13.9241 15.8469Z" fill="#008115"/>
<path d="M11.6141 6.80305C11.4262 6.69699 11.188 6.76328 11.082 6.95113L7.46133 13.3647C7.35531 13.5525 7.42156 13.7907 7.60941 13.8968C7.65407 13.922 7.70326 13.9382 7.75417 13.9444C7.80509 13.9506 7.85672 13.9467 7.90614 13.933C7.95555 13.9192 8.00177 13.8959 8.04215 13.8642C8.08254 13.8326 8.11629 13.7933 8.14148 13.7487L11.7621 7.33512C11.8682 7.14727 11.8019 6.90906 11.6141 6.80305ZM12.3529 10.9546C11.4484 10.9546 10.7126 11.6905 10.7126 12.595C10.7126 13.4994 11.4484 14.2353 12.3529 14.2353C13.2573 14.2353 13.9932 13.4995 13.9932 12.595C13.9932 11.6905 13.2574 10.9546 12.3529 10.9546ZM12.3529 13.4541C11.8791 13.4541 11.4937 13.0687 11.4937 12.5949C11.4937 12.1211 11.8791 11.7357 12.3529 11.7357C12.8267 11.7357 13.2121 12.1211 13.2121 12.5949C13.2121 13.0687 12.8267 13.4541 12.3529 13.4541ZM7.64715 5.76465C6.7427 5.76465 6.00684 6.50047 6.00684 7.40496C6.00684 8.30945 6.74266 9.04527 7.64715 9.04527C8.5516 9.04527 9.28746 8.30945 9.28746 7.40496C9.28746 6.50047 8.55164 5.76465 7.64715 5.76465ZM7.64715 8.26414C7.17336 8.26414 6.78793 7.87871 6.78793 7.40492C6.78793 6.93113 7.17336 6.5457 7.64715 6.5457C8.12094 6.5457 8.50637 6.93113 8.50637 7.40492C8.50637 7.87871 8.12094 8.26414 7.64715 8.26414Z" fill="#008115"/>
</g>
<defs>
<clipPath id="clip0_92_30761">
<rect width="20" height="20" fill="white"/>
</clipPath>
</defs>
</svg>
