<svg width="60" height="60" viewBox="0 0 60 60" fill="none" xmlns="http://www.w3.org/2000/svg">
<circle cx="30" cy="30" r="30" fill="#EAEAEA"/>
<g clipPath="url(#clip0_92_28552)">
<path d="M33.8487 20H33.991C34.1052 21.4104 33.5668 22.4643 32.9125 23.2275C32.2705 23.9854 31.3914 24.7205 29.9696 24.609C29.8747 23.2187 30.4139 22.243 31.0673 21.4816C31.6733 20.772 32.7843 20.1405 33.8487 20ZM38.1529 34.6805V34.7201C37.7533 35.9303 37.1834 36.9675 36.4878 37.93C35.8528 38.8038 35.0747 39.9798 33.6854 39.9798C32.4848 39.9798 31.6874 39.2078 30.457 39.1868C29.1554 39.1657 28.4397 39.8323 27.2497 40H26.8439C25.9701 39.8735 25.2649 39.1815 24.7511 38.5579C23.2361 36.7154 22.0655 34.3354 21.8477 31.2897V30.3948C21.9399 28.215 22.999 26.4427 24.4068 25.5838C25.1498 25.1271 26.1712 24.7381 27.3085 24.912C27.7959 24.9875 28.2939 25.1543 28.7304 25.3195C29.144 25.4784 29.6613 25.7603 30.1513 25.7454C30.4833 25.7357 30.8135 25.5627 31.1481 25.4407C32.1283 25.0867 33.089 24.681 34.3555 24.8716C35.8774 25.1017 36.9577 25.7779 37.6251 26.8212C36.3376 27.6406 35.3197 28.8754 35.4936 30.9841C35.6482 32.8995 36.7618 34.0201 38.1529 34.6805Z" fill="black"/>
</g>
<defs>
<clipPath id="clip0_92_28552">
<rect width="20" height="20" fill="white" transform="translate(20 20)"/>
</clipPath>
</defs>
</svg>
