<svg width="60" height="60" viewBox="0 0 60 60" fill="none" xmlns="http://www.w3.org/2000/svg">
<circle cx="30" cy="30" r="30" fill="#EAEAEA"/>
<g clipPath="url(#clip0_92_28542)">
<path d="M39.2446 28.2611L31.0868 28.2607C30.7266 28.2607 30.4346 28.5527 30.4346 28.9129V31.519C30.4346 31.8791 30.7266 32.1712 31.0868 32.1712H35.6807C35.1777 33.4767 34.2388 34.57 33.0409 35.2647L34.9998 38.6557C38.142 36.8384 39.9998 33.6497 39.9998 30.0803C39.9998 29.572 39.9623 29.2087 39.8874 28.7996C39.8304 28.4888 39.5606 28.2611 39.2446 28.2611Z" fill="#167EE6"/>
<path d="M29.9996 36.0871C27.7514 36.0871 25.7887 34.8587 24.7346 33.041L21.3438 34.9955C23.0693 37.9862 26.3019 40.0001 29.9996 40.0001C31.8135 40.0001 33.5251 39.5117 34.9996 38.6606V38.6559L33.0407 35.2649C32.1447 35.7846 31.1078 36.0871 29.9996 36.0871Z" fill="#12B347"/>
<path d="M35 38.6603V38.6557L33.0411 35.2646C32.1451 35.7843 31.1083 36.0868 30 36.0868V39.9998C31.8139 39.9998 33.5256 39.5114 35 38.6603Z" fill="#0F993E"/>
<path d="M23.913 30.0002C23.913 28.8921 24.2155 27.8553 24.735 26.9593L21.3442 25.0049C20.4884 26.4747 20 28.1816 20 30.0002C20 31.8188 20.4884 33.5258 21.3442 34.9956L24.735 33.0411C24.2155 32.1452 23.913 31.1084 23.913 30.0002Z" fill="#FFD500"/>
<path d="M29.9996 23.913C31.4656 23.913 32.8123 24.434 33.8641 25.3005C34.1236 25.5143 34.5007 25.4988 34.7384 25.2611L36.5849 23.4146C36.8546 23.145 36.8354 22.7035 36.5473 22.4536C34.785 20.9247 32.492 20 29.9996 20C26.3019 20 23.0693 22.0139 21.3438 25.0046L24.7346 26.9591C25.7887 25.1414 27.7514 23.913 29.9996 23.913Z" fill="#FF4B26"/>
<path d="M33.8645 25.3005C34.124 25.5143 34.5012 25.4988 34.7389 25.2611L36.5854 23.4146C36.855 23.145 36.8358 22.7035 36.5477 22.4536C34.7854 20.9247 32.4925 20 30 20V23.913C31.466 23.913 32.8127 24.434 33.8645 25.3005Z" fill="#D93F21"/>
</g>
<defs>
<clipPath id="clip0_92_28542">
<rect width="20" height="20" fill="white" transform="translate(20 20)"/>
</clipPath>
</defs>
</svg>
