<svg width="20" height="20" viewBox="0 0 20 20" fill="none" xmlns="http://www.w3.org/2000/svg">
<g clipPath="url(#clip0_92_29598)">
<path d="M19.9478 7.28175C19.8839 7.08355 19.763 6.90857 19.6003 6.7786C19.4376 6.64863 19.2402 6.56943 19.0328 6.55087L13.2602 6.02668L10.9776 0.683962C10.8092 0.292428 10.426 0.0390625 10.0001 0.0390625C9.57422 0.0390625 9.19089 0.292467 9.0226 0.684938L6.73997 6.02671L0.9665 6.55087C0.759313 6.56985 0.562253 6.64922 0.39975 6.77914C0.237248 6.90906 0.116451 7.08382 0.052336 7.28175C-0.079347 7.68676 0.0422577 8.13095 0.363164 8.41095L4.72656 12.2376L3.43988 17.9053C3.34574 18.3221 3.50746 18.7529 3.85325 19.0028C4.03908 19.1371 4.25654 19.2054 4.47581 19.2054C4.66488 19.2054 4.85238 19.1545 5.02074 19.0538L10.0001 16.0778L14.9776 19.0538C15.3419 19.2729 15.801 19.2529 16.146 19.0028C16.3149 18.8805 16.4442 18.7113 16.5177 18.5162C16.5912 18.3211 16.6057 18.1086 16.5594 17.9053L15.2728 12.2376L19.6361 8.41174C19.7931 8.27465 19.9063 8.09446 19.9617 7.89357C20.0171 7.69267 20.0123 7.47992 19.9478 7.28175Z" fill="#FFC107"/>
</g>
<defs>
<clipPath id="clip0_92_29598">
<rect width="20" height="20" fill="white"/>
</clipPath>
</defs>
</svg>
