<svg width="40" height="40" viewBox="0 0 40 40" fill="none" xmlns="http://www.w3.org/2000/svg">
<rect x="1.21484" y="0.5" width="38.2857" height="38.2857" rx="9.5" stroke="white"/>
<g clipPath="url(#clip0_92_32353)">
<path d="M30.7148 13.7988C29.9711 14.125 29.1786 14.3412 28.3523 14.4462C29.2023 13.9388 29.8511 13.1412 30.1561 12.18C29.3636 12.6525 28.4886 12.9863 27.5561 13.1725C26.8036 12.3713 25.7311 11.875 24.5611 11.875C22.2911 11.875 20.4636 13.7175 20.4636 15.9763C20.4636 16.3012 20.4911 16.6137 20.5586 16.9112C17.1498 16.745 14.1336 15.1113 12.1073 12.6225C11.7536 13.2363 11.5461 13.9388 11.5461 14.695C11.5461 16.115 12.2773 17.3737 13.3673 18.1025C12.7086 18.09 12.0623 17.8988 11.5148 17.5975V17.6425C11.5148 19.635 12.9361 21.29 14.7998 21.6712C14.4661 21.7625 14.1023 21.8062 13.7248 21.8062C13.4623 21.8062 13.1973 21.7913 12.9486 21.7362C13.4798 23.36 14.9873 24.5538 16.7798 24.5925C15.3848 25.6838 13.6136 26.3412 11.6961 26.3412C11.3598 26.3412 11.0373 26.3263 10.7148 26.285C12.5311 27.4563 14.6836 28.125 17.0048 28.125C24.5498 28.125 28.6748 21.875 28.6748 16.4575C28.6748 16.2762 28.6686 16.1013 28.6598 15.9275C29.4736 15.35 30.1573 14.6288 30.7148 13.7988Z" fill="white"/>
</g>
<defs>
<clipPath id="clip0_92_32353">
<rect width="20" height="20" fill="white" transform="translate(10.7148 10)"/>
</clipPath>
</defs>
</svg>
